<?xml version="1.0" encoding="utf-8"?>
<svg xmlns="http://www.w3.org/2000/svg" xmlns:xlink="http://www.w3.org/1999/xlink" style="margin: auto; background: none; display: block; shape-rendering: auto;" width="98px" height="98px" viewBox="0 0 100 100" preserveAspectRatio="xMidYMid">
<g transform="rotate(0 50 50)">
  <rect x="48.5" y="22.5" rx="0" ry="0" width="3" height="15" fill="#6c6661">
    <animate attributeName="opacity" values="1;0" keyTimes="0;1" dur="0.5586592178770949s" begin="-0.5121042830540037s" repeatCount="indefinite"></animate>
  </rect>
</g><g transform="rotate(30 50 50)">
  <rect x="48.5" y="22.5" rx="0" ry="0" width="3" height="15" fill="#6c6661">
    <animate attributeName="opacity" values="1;0" keyTimes="0;1" dur="0.5586592178770949s" begin="-0.4655493482309125s" repeatCount="indefinite"></animate>
  </rect>
</g><g transform="rotate(60 50 50)">
  <rect x="48.5" y="22.5" rx="0" ry="0" width="3" height="15" fill="#6c6661">
    <animate attributeName="opacity" values="1;0" keyTimes="0;1" dur="0.5586592178770949s" begin="-0.41899441340782123s" repeatCount="indefinite"></animate>
  </rect>
</g><g transform="rotate(90 50 50)">
  <rect x="48.5" y="22.5" rx="0" ry="0" width="3" height="15" fill="#6c6661">
    <animate attributeName="opacity" values="1;0" keyTimes="0;1" dur="0.5586592178770949s" begin="-0.37243947858473s" repeatCount="indefinite"></animate>
  </rect>
</g><g transform="rotate(120 50 50)">
  <rect x="48.5" y="22.5" rx="0" ry="0" width="3" height="15" fill="#6c6661">
    <animate attributeName="opacity" values="1;0" keyTimes="0;1" dur="0.5586592178770949s" begin="-0.3258845437616387s" repeatCount="indefinite"></animate>
  </rect>
</g><g transform="rotate(150 50 50)">
  <rect x="48.5" y="22.5" rx="0" ry="0" width="3" height="15" fill="#6c6661">
    <animate attributeName="opacity" values="1;0" keyTimes="0;1" dur="0.5586592178770949s" begin="-0.27932960893854747s" repeatCount="indefinite"></animate>
  </rect>
</g><g transform="rotate(180 50 50)">
  <rect x="48.5" y="22.5" rx="0" ry="0" width="3" height="15" fill="#6c6661">
    <animate attributeName="opacity" values="1;0" keyTimes="0;1" dur="0.5586592178770949s" begin="-0.23277467411545624s" repeatCount="indefinite"></animate>
  </rect>
</g><g transform="rotate(210 50 50)">
  <rect x="48.5" y="22.5" rx="0" ry="0" width="3" height="15" fill="#6c6661">
    <animate attributeName="opacity" values="1;0" keyTimes="0;1" dur="0.5586592178770949s" begin="-0.186219739292365s" repeatCount="indefinite"></animate>
  </rect>
</g><g transform="rotate(240 50 50)">
  <rect x="48.5" y="22.5" rx="0" ry="0" width="3" height="15" fill="#6c6661">
    <animate attributeName="opacity" values="1;0" keyTimes="0;1" dur="0.5586592178770949s" begin="-0.13966480446927373s" repeatCount="indefinite"></animate>
  </rect>
</g><g transform="rotate(270 50 50)">
  <rect x="48.5" y="22.5" rx="0" ry="0" width="3" height="15" fill="#6c6661">
    <animate attributeName="opacity" values="1;0" keyTimes="0;1" dur="0.5586592178770949s" begin="-0.0931098696461825s" repeatCount="indefinite"></animate>
  </rect>
</g><g transform="rotate(300 50 50)">
  <rect x="48.5" y="22.5" rx="0" ry="0" width="3" height="15" fill="#6c6661">
    <animate attributeName="opacity" values="1;0" keyTimes="0;1" dur="0.5586592178770949s" begin="-0.04655493482309125s" repeatCount="indefinite"></animate>
  </rect>
</g><g transform="rotate(330 50 50)">
  <rect x="48.5" y="22.5" rx="0" ry="0" width="3" height="15" fill="#6c6661">
    <animate attributeName="opacity" values="1;0" keyTimes="0;1" dur="0.5586592178770949s" begin="0s" repeatCount="indefinite"></animate>
  </rect>
</g>
<!-- [ldio] generated by https://loading.io/ --></svg>